# Blender v2.69 (sub 0) OBJ File: ''
# www.blender.org
mtllib head.mtl
o Cube.004
v 0.102824 -0.114880 -0.105295
v 0.102824 -0.114880 0.105295
v -0.102824 -0.114880 0.105295
v 0.102824 0.114880 -0.105295
v -0.102824 0.114880 -0.105295
v 0.102824 0.114880 0.105295
v -0.102824 0.114880 0.105295
v -0.102824 -0.114880 -0.105295
vn 0.000000 -1.000000 -0.000000
vn 0.000000 1.000000 0.000000
vn 1.000000 0.000000 0.000000
vn 0.000000 -0.000000 1.000000
vn -1.000000 -0.000000 0.000000
vn 0.000000 0.000000 -1.000000
usemtl Material.004
s off
f 1//1 2//1 3//1
f 4//2 5//2 6//2
f 1//3 4//3 2//3
f 2//4 6//4 7//4
f 3//5 7//5 8//5
f 4//6 1//6 5//6
f 8//1 1//1 3//1
f 5//2 7//2 6//2
f 4//3 6//3 2//3
f 3//4 2//4 7//4
f 7//5 5//5 8//5
f 1//6 8//6 5//6
