# Blender v2.69 (sub 0) OBJ File: ''
# www.blender.org
mtllib toe.mtl
o Cube.009
v 0.090692 -0.027634 -0.050940
v 0.090692 -0.027634 0.050940
v -0.090692 -0.027634 -0.050940
v 0.090692 0.027634 -0.050940
v -0.090692 0.027634 -0.050940
v 0.090691 0.027634 0.050940
v -0.090692 0.027634 0.050940
v -0.090692 -0.027634 0.050940
vn 0.000000 -1.000000 -0.000000
vn 0.000000 1.000000 0.000000
vn 1.000000 -0.000000 0.000010
vn 0.000000 -0.000000 1.000000
vn -1.000000 0.000000 0.000000
vn 0.000000 0.000000 -1.000000
vn 1.000000 0.000018 0.000000
usemtl Material.009
s off
f 1//1 2//1 3//1
f 4//2 5//2 6//2
f 1//3 4//3 6//3
f 2//4 6//4 7//4
f 8//5 7//5 3//5
f 4//6 1//6 5//6
f 2//1 8//1 3//1
f 5//2 7//2 6//2
f 2//7 1//7 6//7
f 8//4 2//4 7//4
f 7//5 5//5 3//5
f 1//6 3//6 5//6
